<svg width="9" height="16" viewBox="0 0 9 16" fill="none" xmlns="http://www.w3.org/2000/svg">
<path fill-rule="evenodd" clip-rule="evenodd" d="M7.94926 0.332143C7.65471 0.0396434 7.17835 0.0396434 6.88453 0.332143L0.656897 6.53014C0.517494 6.66677 0.406493 6.8312 0.330642 7.01345C0.254792 7.19569 0.215678 7.39194 0.215678 7.59027C0.215678 7.78859 0.254792 7.98485 0.330642 8.16709C0.406493 8.34934 0.517495 8.51377 0.656898 8.65039L6.92962 14.8941C7.07199 15.0337 7.26051 15.1121 7.45691 15.1135C7.65332 15.1149 7.84287 15.0392 7.98708 14.9016C8.05852 14.8337 8.11568 14.7514 8.15502 14.6598C8.19436 14.5682 8.21505 14.4692 8.2158 14.3691C8.21655 14.2689 8.19735 14.1696 8.15938 14.0774C8.12141 13.9851 8.06549 13.9019 7.99508 13.8329L2.25399 8.12014C2.18423 8.05183 2.12868 7.96959 2.09072 7.87843C2.05276 7.78727 2.03319 7.6891 2.03319 7.58989C2.03319 7.49069 2.05276 7.39252 2.09072 7.30136C2.12868 7.2102 2.18423 7.12796 2.25399 7.05964L7.94926 1.39189C8.019 1.32364 8.07453 1.24147 8.11248 1.15037C8.15044 1.05928 8.17001 0.961166 8.17001 0.862019C8.17001 0.762872 8.15044 0.664761 8.11248 0.573665C8.07453 0.482569 8.019 0.400393 7.94926 0.332143" fill="#3356D9"/>
</svg>
