<svg width="20" height="20" viewBox="0 0 20 20" fill="none" xmlns="http://www.w3.org/2000/svg">
<path d="M9.97068 10.7038C12.9326 10.7038 15.3079 8.29912 15.3079 5.36657C15.3079 2.43402 12.9326 0 9.97068 0C7.0088 0 4.63343 2.40469 4.63343 5.33724C4.63343 8.2698 7.0088 10.7038 9.97068 10.7038ZM9.97068 1.40762C12.1408 1.40762 13.9003 3.16716 13.9003 5.33724C13.9003 7.50733 12.1408 9.26686 9.97068 9.26686C7.80059 9.26686 6.04106 7.53666 6.04106 5.36657C6.04106 3.19648 7.80059 1.40762 9.97068 1.40762ZM0.703812 19.0616H19.2962C19.6774 19.0616 20 18.739 20 18.3578C20 14.6628 16.9795 11.6422 13.2845 11.6422H6.71554C3.02053 11.6422 0 14.6628 0 18.3578C0 18.739 0.322581 19.0616 0.703812 19.0616ZM6.71554 13.0499H13.2845C15.9824 13.0499 18.1818 15.044 18.5337 17.654H1.46628C1.81818 15.044 4.0176 13.0499 6.71554 13.0499Z" fill="black"/>
</svg>
