<svg width="16" height="20" viewBox="0 0 16 20" fill="none" xmlns="http://www.w3.org/2000/svg">
<path d="M2.39999 16.194V18.8H0.799988V19.6H15.2V18.8H13.6V16.194C13.601 15.8261 13.529 15.4617 13.3881 15.1218C13.2473 14.782 13.0405 14.4734 12.7796 14.214L8.56559 10L12.7796 5.78602C13.0405 5.52663 13.2473 5.21807 13.3881 4.8782C13.5289 4.53833 13.6009 4.17391 13.6 3.80602V1.20002H15.2V0.400024H0.799988V1.20002H2.39999V3.80602C2.39999 4.55442 2.69159 5.25722 3.22039 5.78602L7.43439 10L3.22039 14.214C2.95952 14.4734 2.75268 14.782 2.61186 15.1219C2.47104 15.4617 2.39903 15.8261 2.39999 16.194ZM3.78599 5.22002C3.59967 5.03479 3.45194 4.81443 3.35136 4.57172C3.25077 4.32901 3.19932 4.06875 3.19999 3.80602V1.20002H12.8V3.80602C12.8007 4.06882 12.7492 4.32913 12.6486 4.57191C12.548 4.81469 12.4003 5.03511 12.214 5.22042L7.99999 9.43442L3.78599 5.22002ZM7.99999 10.5656L12.214 14.78C12.4003 14.9653 12.548 15.1856 12.6486 15.4283C12.7492 15.671 12.8007 15.9313 12.8 16.194V18.8H3.19999V16.194C3.19999 15.6596 3.40839 15.1572 3.78599 14.7796L7.99999 10.5656Z" fill="black"/>
</svg>
