<svg width="33" height="32" viewBox="0 0 33 32" fill="none" xmlns="http://www.w3.org/2000/svg">
<g clip-path="url(#clip0_270_5243)">
<path d="M28.66 23.6159V8.31993C28.66 7.96793 28.372 7.67993 28.02 7.67993H4.97997C4.62797 7.67993 4.33997 7.96793 4.33997 8.31993V23.6799C4.33997 24.4799 5.39597 24.3199 4.97997 24.3199H28.02C28.98 24.3199 28.532 22.8479 28.66 23.6159ZM6.25997 23.0399L13.3 13.8559L19.188 21.5679L20.308 23.0399H6.25997ZM21.94 23.0399L20.5 21.1839L22.9 18.0479L26.708 23.0399H21.94ZM27.38 21.7599L23.412 16.5759C23.156 16.2239 22.644 16.2239 22.388 16.5759L19.7 20.0959L13.812 12.4159C13.556 12.0639 13.044 12.0639 12.788 12.4159L5.61997 21.7919V8.95993H27.38V21.7599ZM20.02 10.8799C18.772 10.8799 17.78 11.8719 17.78 13.1199C17.78 14.3679 18.772 15.3599 20.02 15.3599C21.268 15.3599 22.26 14.3679 22.26 13.1199C22.26 11.8719 21.236 10.8799 20.02 10.8799ZM20.02 14.0799C19.508 14.0799 19.06 13.6639 19.06 13.1199C19.06 12.5759 19.476 12.1599 20.02 12.1599C20.564 12.1599 20.98 12.5759 20.98 13.1199C20.98 13.6639 20.532 14.0799 20.02 14.0799Z" fill="#3356D9"/>
<path d="M302.58 -208V330.88H-268.3V-208H302.58ZM305.14 -210.56H-270.86V333.44H305.14V-210.56Z" fill="#3356D9"/>
</g>
<defs>
<clipPath id="clip0_270_5243">
<rect width="32" height="32" fill="white" transform="translate(0.5)"/>
</clipPath>
</defs>
</svg>
