<svg width="200" height="200" viewBox="0 0 200 200" fill="none" xmlns="http://www.w3.org/2000/svg">
<path d="M99.9998 16.6666C77.9857 16.9474 56.9523 25.8172 41.3847 41.3848C25.8171 56.9524 16.9472 77.9858 16.6665 100C16.7694 112.824 19.8308 125.452 25.6124 136.899C31.394 148.347 39.7398 158.306 49.9998 166V166.667H50.8332C64.943 177.479 82.2236 183.339 99.9998 183.339C117.776 183.339 135.057 177.479 149.167 166.667H150V166C160.26 158.306 168.606 148.347 174.387 136.899C180.169 125.452 183.23 112.824 183.333 100C183.052 77.9858 174.183 56.9524 158.615 41.3848C143.047 25.8172 122.014 16.9474 99.9998 16.6666V16.6666ZM67.2498 157.75C68.4664 152.179 71.5511 147.191 75.9922 143.614C80.4333 140.036 85.9639 138.085 91.6665 138.083H108.333C114.036 138.085 119.566 140.036 124.007 143.614C128.449 147.191 131.533 152.179 132.75 157.75C122.824 163.59 111.517 166.67 99.9998 166.67C88.4832 166.67 77.1759 163.59 67.2498 157.75V157.75ZM146.75 147C143.58 139.425 138.242 132.955 131.408 128.403C124.573 123.851 116.545 121.421 108.333 121.417H91.6665C83.4547 121.421 75.4271 123.851 68.5922 128.403C61.7572 132.955 56.4196 139.425 53.2498 147C47.0054 140.858 42.0323 133.546 38.615 125.482C35.1976 117.417 33.4028 108.758 33.3332 100C33.5493 82.386 40.6425 65.5544 53.0984 53.0985C65.5543 40.6426 82.3859 33.5494 99.9998 33.3333C117.614 33.5494 134.445 40.6426 146.901 53.0985C159.357 65.5544 166.45 82.386 166.667 100C166.597 108.758 164.802 117.417 161.385 125.482C157.967 133.546 152.994 140.858 146.75 147V147Z" fill="black"/>
<path d="M99.9999 50C95.5944 49.8974 91.2139 50.6895 87.1234 52.3283C83.0328 53.9671 79.3171 56.4187 76.2012 59.5347C73.0852 62.6506 70.6336 66.3663 68.9948 70.4568C67.356 74.5474 66.5639 78.9279 66.6666 83.3334C66.5639 87.7388 67.356 92.1193 68.9948 96.2099C70.6336 100.3 73.0852 104.016 76.2012 107.132C79.3171 110.248 83.0328 112.7 87.1234 114.338C91.2139 115.977 95.5944 116.769 99.9999 116.667C104.405 116.769 108.786 115.977 112.876 114.338C116.967 112.7 120.683 110.248 123.799 107.132C126.915 104.016 129.366 100.3 131.005 96.2099C132.644 92.1193 133.436 87.7388 133.333 83.3334C133.436 78.9279 132.644 74.5474 131.005 70.4568C129.366 66.3663 126.915 62.6506 123.799 59.5347C120.683 56.4187 116.967 53.9671 112.876 52.3283C108.786 50.6895 104.405 49.8974 99.9999 50V50ZM99.9999 100C97.7828 100.107 95.5678 99.7495 93.4972 98.9498C91.4266 98.1502 89.5461 96.9263 87.9765 95.3567C86.407 93.7872 85.1831 91.9067 84.3834 89.8361C83.5838 87.7655 83.226 85.5505 83.3332 83.3334C83.226 81.1163 83.5838 78.9013 84.3834 76.8307C85.1831 74.7601 86.407 72.8796 87.9765 71.31C89.5461 69.7405 91.4266 68.5166 93.4972 67.7169C95.5678 66.9173 97.7828 66.5595 99.9999 66.6667C102.217 66.5595 104.432 66.9173 106.503 67.7169C108.573 68.5166 110.454 69.7405 112.023 71.31C113.593 72.8796 114.817 74.7601 115.616 76.8307C116.416 78.9013 116.774 81.1163 116.667 83.3334C116.774 85.5505 116.416 87.7655 115.616 89.8361C114.817 91.9067 113.593 93.7872 112.023 95.3567C110.454 96.9263 108.573 98.1502 106.503 98.9498C104.432 99.7495 102.217 100.107 99.9999 100Z" fill="black"/>
</svg>
