<svg width="813" height="459" viewBox="0 0 813 459" fill="none" xmlns="http://www.w3.org/2000/svg">
<g clip-path="url(#clip0_139_3018)">
<path d="M2.27117 459.306C2.27117 459.306 -14.8925 317.713 45.1801 274.804C97.4903 237.43 141.003 214.732 229.682 211.871C318.36 209.01 366.976 208.996 419.905 150.375C472.833 91.7546 544.391 3.17661 624.416 0.20101C701.652 -2.67397 748.845 21.6483 793.177 193.284C837.509 364.92 791.739 453.585 790.302 455.008C789.31 456.028 2.27117 459.306 2.27117 459.306Z" fill="#F8F8FF"/>
<path d="M362.232 347.311C367.106 288.374 348.95 202.125 370.139 190.122C391.054 178.291 398.184 174.425 419.89 150.375C472.804 91.7402 544.319 3.16223 624.416 0.20101C701.652 -2.67397 748.845 21.6483 793.177 193.284C815.343 279.102 814.035 324.441 811.864 351.537C810.685 366.444 809.507 385.85 808.788 386.555C807.796 387.575 358.193 396.258 362.232 347.311Z" fill="#E9EDFC"/>
<path d="M183.107 157.059L176.753 456.431C176.753 458.573 182.503 457.868 183.941 457.868H192.566L191.243 157.548L242.619 158.986L220.309 32.9611C219.752 29.7983 218.097 26.9333 215.636 24.8696C213.175 22.8058 210.066 21.6753 206.854 21.6768H171.406C167.3 21.6656 163.322 23.0998 160.168 25.7282C157.014 28.3566 154.885 32.0113 154.156 36.0517L132.436 156.125L183.107 157.059Z" fill="#E1E6FC"/>
<path d="M94.6441 387.317C94.6441 387.317 94.3279 399.047 96.3116 400.355C97.1634 401.023 98.1412 401.512 99.1866 401.792L109.062 455.08C109.062 455.08 138.013 460.341 152.489 454.419L162.364 401.778L165.656 400.456L166.978 387.303C166.978 387.303 131.487 375.472 94.6441 387.317Z" fill="#E1E6FC"/>
<path d="M97.9646 401.447C97.9646 401.447 136.777 404.423 141.362 403.115C145.948 401.806 144.654 391.27 144.654 391.27L163.73 389.3C163.73 389.3 163.73 400.484 162.407 401.806C160.95 403.558 159.833 405.566 159.115 407.729C159.115 408.39 151.224 455.166 151.224 455.166C151.224 455.166 138.718 457.135 136.748 457.135C134.779 457.135 142.009 418.395 142.009 415.678C142.009 412.961 142.009 407.786 140.04 407.786C138.071 407.786 100.02 408.922 99.7902 404.681C99.4807 403.46 98.8504 402.343 97.9646 401.447Z" fill="#BAC4F6"/>
<path d="M113.245 389.774C113.245 389.774 102.421 382.17 96.671 381.48C90.921 380.79 84.2511 380.042 78.5011 379.151C72.7512 378.26 65.42 375.687 65.5637 372.323C65.7075 368.959 66.3974 367.349 69.7755 365.351C72.6236 363.497 75.8506 362.304 79.2199 361.858C81.7498 361.628 107.711 368.37 118.535 384.484L122.848 389.774H113.245Z" fill="#BAC4F6"/>
<path d="M75.7698 370.973C75.7698 370.973 85.7171 370.843 91.1652 372.611C95.4247 374.204 99.5533 376.126 103.513 378.361L119.8 389.703" fill="#BAC4F6"/>
<path d="M75.7698 370.973C75.7698 370.973 85.7171 370.843 91.1652 372.611C95.4247 374.204 99.5533 376.126 103.513 378.361L119.8 389.703" stroke="white" stroke-width="1.07812" stroke-miterlimit="10" stroke-linecap="round"/>
<path d="M124.644 389.329C124.644 389.329 112.052 372.223 107.15 367.407C102.248 362.591 96.5128 357.086 91.7834 352.055C87.0541 347.023 81.0884 339.807 83.604 336.846C86.1196 333.885 87.9166 331.872 92.5022 332.534C96.0874 332.917 99.5207 334.186 102.493 336.228C105.023 337.867 127.893 359.673 131.242 384.729L134.534 389.803L124.644 389.329Z" fill="#BAC4F6"/>
<path d="M95.0608 342.596C95.0608 342.596 104.864 348.461 108.717 354.096C112.354 359.357 118.118 368.773 118.118 368.773L124.659 386.727" stroke="white" stroke-width="1.07812" stroke-miterlimit="10" stroke-linecap="round"/>
<path d="M130.94 390.177C130.94 390.177 116.235 358.25 113.489 351.939C110.744 345.629 99.5169 336.127 97.03 329.687C94.5432 323.247 92.9619 318.561 95.5925 315.025C98.2231 311.489 104.979 308.556 109.292 310.712C113.36 312.696 118.65 318.734 120.921 321.795C122.732 324.21 134.764 367.579 133.772 377.584L136.072 390.392L130.94 390.177Z" fill="#E9EDFC"/>
<path d="M105.037 322.471C105.037 322.471 113.475 333.338 116.034 339.721C118.909 346.908 121.784 360.608 121.41 358.408L130.193 388.064" stroke="white" stroke-width="1.07812" stroke-miterlimit="10" stroke-linecap="round"/>
<path d="M122.876 389.933C122.876 389.933 109.939 375.17 103.628 372.309C97.3178 369.448 90.1447 366.214 83.9779 363.138C77.8111 360.062 70.4081 354.843 71.6587 351.71C72.9093 348.576 74.1887 347.311 78.6449 346.722C82.5382 346.063 86.5227 346.17 90.3748 347.038C93.2498 347.785 120.275 364.115 127.218 383.507L130.423 390.191L122.876 389.933Z" fill="#E9EDFC"/>
<path d="M83.5897 354.384C83.5897 354.384 94.7878 358.064 100.351 361.83C104.587 364.93 108.603 368.321 112.368 371.979L124.788 390.062" stroke="white" stroke-width="1.07812" stroke-miterlimit="10" stroke-linecap="round"/>
<path d="M156.715 390.263C156.715 390.263 168.43 383.076 174.655 382.343C180.879 381.61 188.081 380.991 194.319 380.114C200.558 379.238 208.479 376.808 208.32 373.588C208.162 370.368 207.429 368.83 203.764 366.918C200.617 365.128 197.14 363.993 193.543 363.583C190.798 363.368 162.709 369.793 150.993 385.146L146.264 390.206L156.715 390.263Z" fill="#BAC4F6"/>
<path d="M197.237 372.323C197.237 372.323 186.485 372.194 180.577 373.89C175.996 375.388 171.528 377.214 167.208 379.353L151.583 389.846" fill="#BAC4F6"/>
<path d="M197.237 372.323C197.237 372.323 186.485 372.194 180.577 373.89C175.996 375.388 171.528 377.214 167.208 379.353L151.583 389.846" stroke="white" stroke-width="1.07812" stroke-miterlimit="10" stroke-linecap="round"/>
<path d="M144.367 389.846C144.367 389.846 157.98 373.516 163.298 368.916C168.617 364.316 174.798 359.055 179.93 354.254C185.062 349.453 191.502 342.567 188.771 339.721C186.039 336.875 184.113 334.963 179.14 335.566C175.317 335.911 171.622 337.115 168.33 339.088C165.584 340.641 140.845 361.484 137.222 385.404L133.672 390.249L144.367 389.846Z" fill="#BAC4F6"/>
<path d="M176.394 345.241C176.394 345.241 165.785 350.833 161.616 356.166C157.678 361.197 151.453 370.181 151.453 370.181L144.367 387.316" stroke="white" stroke-width="1.07812" stroke-miterlimit="10" stroke-linecap="round"/>
<path d="M137.582 390.666C137.582 390.666 153.495 360.177 156.456 354.139C159.417 348.102 171.579 339.074 174.267 332.893C176.955 326.712 178.665 322.256 175.848 318.892C173.03 315.528 165.685 312.711 161.027 314.723C156.629 316.621 150.965 322.385 148.449 325.303C146.494 327.618 133.471 369.017 134.534 378.591L132.048 390.824L137.582 390.666Z" fill="#E9EDFC"/>
<path d="M136.044 390.278C136.044 390.278 137.323 360.522 140.356 350.862C142.412 344.465 144.424 333.612 147.112 327.502C149.8 321.393 145.675 313.358 142.915 309.979C140.155 306.601 132.852 307.248 128.137 309.246C123.739 311.144 121.209 317.282 120.648 320.559C120.145 323.549 130.71 359.443 129.589 372.568L130.495 390.45L136.044 390.278Z" fill="#BAC4F6"/>
<path d="M165.598 326.051C165.598 326.051 156.47 336.429 153.696 342.51C150.562 349.396 147.443 362.462 147.946 360.306L137.61 389.343" stroke="white" stroke-width="1.07812" stroke-miterlimit="10" stroke-linecap="round"/>
<path d="M146.293 390.436C146.293 390.436 160.366 376.334 167.122 373.603C173.878 370.871 181.712 367.853 188.382 364.848C195.052 361.844 203.059 356.928 201.708 353.938C200.357 350.948 198.962 349.74 194.147 349.18C189.93 348.551 185.636 348.653 181.454 349.482C178.291 350.2 149.11 365.783 141.592 384.312L138.128 390.694L146.293 390.436Z" fill="#E9EDFC"/>
<path d="M188.814 356.468C188.814 356.468 176.696 359.975 170.687 363.569C166.137 366.501 161.79 369.738 157.678 373.258L143.964 388.466" stroke="white" stroke-width="1.07812" stroke-miterlimit="10" stroke-linecap="round"/>
<path d="M133.14 315.6C133.14 315.6 135.584 341.087 134.16 347.944C133.571 350.819 133.859 368.744 133.859 368.744L133.269 388.596" stroke="white" stroke-width="1.07812" stroke-miterlimit="10" stroke-linecap="round"/>
<path d="M133.686 149.412L240.362 151.382L242.547 158.957L132.422 156.097L133.686 149.412Z" fill="#BAC4F6"/>
<path d="M658.183 167.942L657.306 377.542L790.417 377.901C790.417 377.901 791.38 267.517 786.105 161.804L658.456 159.892L658.183 167.942Z" fill="#BAC4F6"/>
<path d="M532.934 195.038L529.398 378.03H643.175L642.37 195.038H532.934Z" fill="#BAC4F6"/>
<path d="M367.709 302.418L531.238 303.266L529.398 378.03L368.328 377.973L367.709 302.418Z" fill="#BAC4F6"/>
<path d="M354.24 196.936L354.643 378.418C354.643 378.418 355.634 389.832 366.545 390.321C377.456 390.81 807.494 390.996 807.494 390.996C807.494 390.996 811.333 378.965 809.852 378.462C808.371 377.958 368.327 377.973 368.327 377.973C368.327 377.973 368.457 371.547 368.457 367.436C368.457 362.865 368.212 191.214 368.212 191.214C363.758 193.583 359.077 195.5 354.24 196.936Z" fill="white"/>
<path d="M363.727 214.962L798.841 217.564L801.141 226.994L363.727 229.093V214.962Z" fill="white"/>
<path d="M486.503 73.6422V378.347L497.989 379.238V65.6929L486.503 73.6422Z" fill="white"/>
<path d="M694.307 12.3337L694.048 378.347L704.657 377.47L706.31 19.4781L694.307 12.3337Z" fill="white"/>
<path d="M497.989 65.6931L746.315 67.2024L739.171 54.3369L512.119 54.2219L497.989 65.6931Z" fill="white"/>
<path d="M539.849 125.709C553.79 125.709 565.091 114.407 565.091 100.466C565.091 86.5255 553.79 75.2241 539.849 75.2241C525.908 75.2241 514.606 86.5255 514.606 100.466C514.606 114.407 525.908 125.709 539.849 125.709Z" fill="white"/>
<path d="M564.415 125.133C573.553 125.133 580.961 117.725 580.961 108.587C580.961 99.4497 573.553 92.042 564.415 92.042C555.277 92.042 547.87 99.4497 547.87 108.587C547.87 117.725 555.277 125.133 564.415 125.133Z" fill="white"/>
<path d="M731.336 149.47C745.539 149.47 757.053 137.956 757.053 123.753C757.053 109.55 745.539 98.0366 731.336 98.0366C717.133 98.0366 705.62 109.55 705.62 123.753C705.62 137.956 717.133 149.47 731.336 149.47Z" fill="white"/>
<path d="M704.843 143.878C714.148 143.878 721.691 136.335 721.691 127.03C721.691 117.726 714.148 110.183 704.843 110.183C695.539 110.183 687.996 117.726 687.996 127.03C687.996 136.335 695.539 143.878 704.843 143.878Z" fill="white"/>
</g>
<defs>
<clipPath id="clip0_139_3018">
<rect width="813" height="459.306" fill="white"/>
</clipPath>
</defs>
</svg>
