<svg width="1440" height="1024" viewBox="0 0 1440 1024" fill="none" xmlns="http://www.w3.org/2000/svg">
<path d="M107.687 356.841C107.032 355.086 106.538 353.274 106.212 351.429C101.062 319.433 76.7927 139.549 211.612 79.1708C278.003 49.4353 353.246 0.371808 596.682 91.065C883.994 198.113 1071.75 16.7263 1116.01 16.7263C1160.27 16.7263 1260.6 -48.6917 1378.62 79.1708C1496.65 207.033 1408.13 361.658 1408.13 361.658C1408.13 361.658 1352.07 507.361 1369.77 581.7C1387.48 656.039 1408.13 715.51 1402.23 739.298C1396.33 763.086 1393.38 923.658 1296 959.34C1198.63 995.023 1231.09 989.076 1003.88 977.182C776.676 965.287 658.647 997.996 611.435 1015.84C564.224 1033.68 493.406 1027.73 366.525 941.499C239.643 855.266 210.136 882.028 145.22 843.372C80.3041 804.716 -84.6121 590.918 53.7475 435.996C107.23 376.109 109.015 360.602 107.687 356.841Z" fill="#F8F8FF"/>
<path d="M288.552 286.353C313.062 286.353 332.931 266.33 332.931 241.63C332.931 216.931 313.062 196.908 288.552 196.908C264.042 196.908 244.173 216.931 244.173 241.63C244.173 266.33 264.042 286.353 288.552 286.353Z" fill="white"/>
<path d="M336.752 271.871C353.44 271.871 366.967 258.239 366.967 241.422C366.967 224.606 353.44 210.973 336.752 210.973C320.064 210.973 306.537 224.606 306.537 241.422C306.537 258.239 320.064 271.871 336.752 271.871Z" fill="white"/>
<path d="M237.991 265.3C251.419 265.3 262.305 254.33 262.305 240.798C262.305 227.266 251.419 216.296 237.991 216.296C224.563 216.296 213.677 227.266 213.677 240.798C213.677 254.33 224.563 265.3 237.991 265.3Z" fill="white"/>
<path d="M1159.03 215.448C1183.54 215.448 1203.41 195.426 1203.41 170.726C1203.41 146.027 1183.54 126.004 1159.03 126.004C1134.52 126.004 1114.65 146.027 1114.65 170.726C1114.65 195.426 1134.52 215.448 1159.03 215.448Z" fill="white"/>
<path d="M1207.23 200.967C1223.92 200.967 1237.45 187.335 1237.45 170.518C1237.45 153.701 1223.92 140.069 1207.23 140.069C1190.54 140.069 1177.02 153.701 1177.02 170.518C1177.02 187.335 1190.54 200.967 1207.23 200.967Z" fill="white"/>
<path d="M1108.47 194.396C1121.9 194.396 1132.78 183.426 1132.78 169.894C1132.78 156.361 1121.9 145.392 1108.47 145.392C1095.04 145.392 1084.16 156.361 1084.16 169.894C1084.16 183.426 1095.04 194.396 1108.47 194.396Z" fill="white"/>
<path d="M677.428 371.336C701.938 371.336 721.807 351.314 721.807 326.614C721.807 301.915 701.938 281.892 677.428 281.892C652.919 281.892 633.049 301.915 633.049 326.614C633.049 351.314 652.919 371.336 677.428 371.336Z" fill="white"/>
<path d="M725.614 356.855C742.301 356.855 755.829 343.223 755.829 326.406C755.829 309.59 742.301 295.957 725.614 295.957C708.926 295.957 695.398 309.59 695.398 326.406C695.398 343.223 708.926 356.855 725.614 356.855Z" fill="white"/>
<path d="M626.868 350.284C640.296 350.284 651.182 339.314 651.182 325.782C651.182 312.25 640.296 301.28 626.868 301.28C613.439 301.28 602.554 312.25 602.554 325.782C602.554 339.314 613.439 350.284 626.868 350.284Z" fill="white"/>
<path d="M34.5677 721.456C34.5677 721.456 62.5997 679.827 65.5504 673.88C68.5011 667.933 67.0258 644.144 67.0258 644.144H56.6982C56.6982 644.144 65.5504 618.869 90.6316 618.869C115.713 618.869 123.09 630.763 126.04 636.71C128.991 642.658 127.516 645.631 127.516 645.631H118.664V669.419L161.449 740.785H179.153V856.753C179.153 856.753 74.4026 801.742 34.5677 721.456Z" fill="#BAC6F2"/>
<path d="M133.417 827.017H154.072V797.282C154.072 797.282 143.745 780.927 133.417 797.282V827.017Z" fill="white"/>
<path d="M139.835 766.55C147.03 766.55 152.862 760.673 152.862 753.422C152.862 746.172 147.03 740.294 139.835 740.294C132.64 740.294 126.808 746.172 126.808 753.422C126.808 760.673 132.64 766.55 139.835 766.55Z" fill="#E9EDFA"/>
<path d="M43.1101 737.558C45.9103 735.571 49.3744 734.775 52.7527 735.342C56.1309 735.91 59.1517 737.795 61.161 740.59C63.1703 743.385 64.0066 746.865 63.4889 750.276C62.9713 753.688 61.1413 756.757 58.395 758.819" fill="#E9EDFA"/>
<path d="M93.2578 707.02C100.453 707.02 106.285 701.142 106.285 693.892C106.285 686.641 100.453 680.764 93.2578 680.764C86.0629 680.764 80.2303 686.641 80.2303 693.892C80.2303 701.142 86.0629 707.02 93.2578 707.02Z" fill="#E9EDFA"/>
<path d="M71.5994 742.881C71.6628 739.483 72.8874 736.212 75.0665 733.618C77.1158 731.054 79.6805 728.956 82.5921 727.462C85.5037 725.968 88.6961 725.112 91.9595 724.95C105.68 724.579 111.7 736.205 112.541 740.963C113.81 748.144 113.529 784.302 113.529 784.302L81.4106 784.124L71.3486 773.494L71.5994 742.881Z" fill="white"/>
<path d="M175.79 694.873L179.153 856.753C179.153 856.753 239.968 879.619 265.61 885.076C291.252 890.532 350.915 924.832 350.915 924.832L349.912 695.631L175.819 694.457" fill="#E9EDFA"/>
<path d="M174.55 694.873L349.912 695.616L349.115 653.377H297.183C297.183 653.377 290.735 628.102 266.554 628.102C236.884 628.102 231.942 654.715 231.942 654.715L174.403 654.106L174.55 694.873Z" fill="#BAC6F2"/>
<path d="M193.096 718.884H224.108V752.783H193.096V718.884ZM249.13 718.409H280.142V752.307H249.13V718.409Z" fill="#BAC6F2"/>
<path d="M304.441 718.899H335.454V752.798H304.441V718.899Z" fill="white"/>
<path d="M304.914 782.667H335.926V816.565H304.914V782.667ZM305.356 856.872H336.368V890.77H305.356V856.872ZM247.92 781.701H278.932V815.599H247.92V781.701Z" fill="#BAC6F2"/>
<path d="M247.92 781.701H278.932V815.599H247.92V781.701Z" fill="white"/>
<path d="M193.332 783.158H224.344V817.056H193.332V783.158Z" fill="#BAC6F2"/>
<path d="M194.025 861.897L193.789 851.995L223.901 852.62L223.99 872.557C223.99 872.557 201.697 865.094 194.025 861.897Z" fill="#BAC6F2"/>
<path d="M249.587 880.556L249.145 855.311L279.67 855.95L278.991 888.971L249.587 880.556Z" fill="#BAC6F2"/>
<path d="M264.902 677.879C274.321 677.879 281.957 670.184 281.957 660.692C281.957 651.2 274.321 643.505 264.902 643.505C255.482 643.505 247.846 651.2 247.846 660.692C247.846 670.184 255.482 677.879 264.902 677.879Z" fill="white"/>
<path d="M349.396 808.477L350.871 924.847C350.871 924.847 442.757 986.459 448.57 990.86C454.383 995.261 502.435 1018.74 524.285 1020.21L528.225 785.388L515.315 784.882L452.184 705.875L428.8 704.745L349.411 808.418" fill="#BAC6F2"/>
<path d="M349.396 808.477L428.874 707.867L437.652 708.195L447.685 708.789L453.217 709.369L515.315 784.957L528.225 785.447V780.942L515.802 780.437L456.315 707.169L456.699 678.831L427.885 677.329L426.779 706.336L350.384 743.401L349.396 808.477Z" fill="#E9EDFA"/>
<path d="M399.839 786.652H414.297V803.69H399.839V786.652ZM463.589 786.785H478.048V803.824H463.589V786.785ZM440.131 786.741H454.589V803.779H440.131V786.741ZM420.936 786.607H435.395V803.645H420.936V786.607ZM399.853 812.7H414.312V829.738H399.853V812.7ZM463.604 812.834H478.062V829.872H463.604V812.834ZM440.16 812.804H454.619V829.842H440.16V812.804ZM420.966 812.67H435.424V829.708H420.966V812.67ZM365.551 889.67H380.01V906.708H365.551V889.67ZM384.332 870.074H398.791V887.113H384.332V870.074ZM365.138 869.941H379.597V886.979H365.138V869.941ZM384.524 889.834H398.983V906.872H384.524V889.834ZM422.19 890.071H436.649V907.11H422.19V890.071ZM440.957 870.476H455.415V887.514H440.957V870.476ZM421.762 870.342H436.221V887.38H421.762V870.342ZM441.149 890.235H455.607V907.273H441.149V890.235ZM477.015 890.636H491.473V907.675H477.015V890.636ZM495.781 871.026H510.24V888.064H495.781V871.026ZM476.587 870.892H491.046V887.93H476.587V870.892ZM495.973 890.8H510.432V907.838H495.973V890.8ZM476.248 973.821H490.706V998.13H476.248V973.821ZM495.029 954.211H509.488V971.249H495.029V954.211ZM475.835 954.092H490.293V971.13H475.835V954.092ZM438.124 953.735H452.583V970.774H438.124V953.735ZM452.716 993.387L438.272 983.917L438.198 974.565H452.657L452.716 993.387ZM418.93 953.601H433.388V970.64H418.93V953.601ZM433.315 980.348L429.641 977.791L423.621 973.792L433.285 973.821L433.315 980.348ZM495.221 973.985H509.679V998.19H495.221V973.985Z" fill="white"/>
<path d="M603.055 630.332H630.305L629.892 616.936L602.613 616.654L603.055 630.332Z" fill="#BAC6F2"/>
<path d="M527 756.009L524.389 1020.19C524.389 1020.19 571.217 1027.46 613.338 1016.74C655.46 1006.02 704.236 994.443 704.236 994.443L705.859 758.522L677.502 744.487L631.5 662.417L630.364 630.332H603.07L602.199 662.417L553.734 743.045L527 756.009Z" fill="#E9EDFA"/>
<path d="M597.021 778.668H614.902V801.088H597.021V778.668ZM621.261 779.069H640.338V801.088H621.261V779.069ZM596.623 805.281H614.504V827.701H596.623V805.281ZM620.863 805.682H639.939V827.701H620.863V805.682ZM597.405 858.701H615.286V881.121H597.405V858.701ZM555.268 858.567H573.15V880.987H555.268V858.567ZM661.022 859.563H678.904V881.983H661.022V859.563ZM661.539 958.329H679.42V980.75H661.539V958.329ZM555.475 958.969H573.356V981.389H555.475V958.969ZM621.645 859.087H640.721V881.106H621.645V859.087ZM597.006 885.314H614.888V907.734H597.006V885.314ZM621.246 885.715H640.323V907.734H621.246V885.715ZM597.08 955.861H614.961V978.282H597.08V955.861ZM621.32 956.263H640.397V978.282H621.32V956.263ZM596.682 982.489H614.563V1004.91H596.682V982.489ZM620.922 982.891H639.998V1004.91H620.922V982.891Z" fill="#BAC6F2"/>
<path d="M565.197 816.179C572.099 816.179 577.694 810.541 577.694 803.586C577.694 796.631 572.099 790.993 565.197 790.993C558.296 790.993 552.701 796.631 552.701 803.586C552.701 810.541 558.296 816.179 565.197 816.179Z" fill="#BAC6F2"/>
<path d="M666.54 818.974C673.442 818.974 679.036 813.336 679.036 806.381C679.036 799.426 673.442 793.788 666.54 793.788C659.639 793.788 654.044 799.426 654.044 806.381C654.044 813.336 659.639 818.974 666.54 818.974Z" fill="#BAC6F2"/>
<path d="M527 756.009H554.25L553.822 742.613L526.543 742.331L527 756.009ZM678.564 758.522H705.814L705.386 745.126L678.122 744.844L678.564 758.522Z" fill="#BAC6F2"/>
<path d="M617.691 749.527C629.555 749.527 639.172 739.835 639.172 727.879C639.172 715.924 629.555 706.232 617.691 706.232C605.827 706.232 596.21 715.924 596.21 727.879C596.21 739.835 605.827 749.527 617.691 749.527Z" fill="#BAC6F2"/>
<path d="M694.557 759.652L696.136 873.658C696.136 873.658 700.267 995.796 700.665 995.395C710.358 985.299 860.123 974.996 877.429 974.58L873.401 736.696L860.492 736.19L797.331 657.124L773.947 655.994L694.557 759.667" fill="#BAC6F2"/>
<path d="M694.557 759.652L774.035 659.042L782.814 659.384L792.846 659.979L798.379 660.544L860.477 736.131L873.386 736.637V732.132L860.964 731.626L801.477 658.343L801.861 630.005L773.047 628.504L771.94 657.525L694.616 745.052L694.557 759.652Z" fill="#E9EDFA"/>
<path d="M744.985 737.826H759.444V754.864H744.985V737.826ZM808.751 737.975H823.209V755.013H808.751V737.975ZM785.292 737.93H799.751V754.968H785.292V737.93ZM766.098 737.796H780.556V754.835H766.098V737.796ZM745.015 763.874H759.473V780.913H745.015V763.874ZM808.765 764.023H823.224V781.061H808.765V764.023ZM785.322 763.978H799.78V781.017H785.322V763.978ZM766.127 763.845H780.586V780.883H766.127V763.845ZM711.052 853.081H725.51V870.119H711.052V853.081ZM729.819 833.485H744.277V850.523H729.819V833.485ZM710.624 833.351H725.083V850.39H710.624V833.351ZM730.01 853.244H744.469V870.283H730.01V853.244ZM767.676 853.482H782.135V870.52H767.676V853.482ZM786.458 833.886H800.916V850.925H786.458V833.886ZM767.263 833.753H781.722V850.791H767.263V833.753ZM786.65 853.646H801.108V870.684H786.65V853.646ZM822.501 854.047H836.959V871.085H822.501V854.047ZM841.282 834.436H855.741V851.475H841.282V834.436ZM822.088 834.303H836.546V851.341H822.088V834.303ZM841.474 854.211H855.933V871.249H841.474V854.211ZM711.45 927.806H725.909V944.844H711.45V927.806ZM730.217 908.195H744.675V925.234H730.217V908.195ZM711.022 908.062H725.481V925.1H711.022V908.062ZM730.409 927.955H744.867V944.993H730.409V927.955ZM768.075 928.207H782.533V945.246H768.075V928.207ZM786.856 908.597H801.315V925.635H786.856V908.597ZM767.662 908.463H782.12V925.501H767.662V908.463ZM787.048 928.356H801.507V945.394H787.048V928.356ZM822.899 928.757H837.358V945.796H822.899V928.757ZM841.681 909.162H856.139V926.2H841.681V909.162ZM822.486 909.028H836.945V926.066H822.486V909.028ZM841.872 928.921H856.331V945.959H841.872V928.921Z" fill="white"/>
<path d="M890.279 705.355C890.279 705.355 928.432 644.144 931.383 638.197C934.333 632.25 932.858 608.462 932.858 608.462H922.531C922.531 608.462 931.383 583.187 956.464 583.187C981.545 583.187 988.922 595.081 991.873 601.028C994.823 606.975 993.348 609.949 993.348 609.949H984.496V633.737L1027.28 705.102H1044.99L1050.8 980.021C1050.8 980.021 882.504 972.067 878.948 974.461C877.842 975.204 877.93 967.428 877.753 966.075C877.016 960.277 870.716 749.973 873.888 705.608C873.888 705.652 890.397 705.34 890.279 705.355Z" fill="#E9EDFA"/>
<path d="M998.541 792.048H1019.2V762.313C1019.2 762.313 1008.87 745.958 998.541 762.313V792.048ZM899.353 794.442H920.008V764.707C920.008 764.707 909.68 748.352 899.353 764.707V794.442ZM899.353 871.204H920.008V841.469C920.008 841.469 909.68 825.114 899.353 841.469V871.204ZM948.674 872.096H969.329V842.361C969.329 842.361 959.002 826.006 948.674 842.361V872.096ZM997.981 872.988H1018.64V843.253C1018.64 843.253 1008.31 826.898 997.981 843.253V872.988ZM900.607 944.651H921.262V914.915C921.262 914.915 910.934 898.561 900.607 914.915V944.651ZM949.943 945.543H970.598V915.807C970.598 915.807 960.27 899.453 949.943 915.807V945.543ZM999.279 946.45H1019.93V916.714C1019.93 916.714 1009.61 900.36 999.279 916.714V946.45Z" fill="white"/>
<path d="M1004.96 731.567C1012.15 731.567 1017.99 725.689 1017.99 718.438C1017.99 711.188 1012.15 705.31 1004.96 705.31C997.764 705.31 991.932 711.188 991.932 718.438C991.932 725.689 997.764 731.567 1004.96 731.567Z" fill="#E9EDFA"/>
<path d="M911.834 729.574C919.029 729.574 924.862 723.697 924.862 716.446C924.862 709.196 919.029 703.318 911.834 703.318C904.639 703.318 898.807 709.196 898.807 716.446C898.807 723.697 904.639 729.574 911.834 729.574Z" fill="#E9EDFA"/>
<path d="M959.37 794.353C966.565 794.353 972.398 788.475 972.398 781.225C972.398 773.974 966.565 768.097 959.37 768.097C952.176 768.097 946.343 773.974 946.343 781.225C946.343 788.475 952.176 794.353 959.37 794.353Z" fill="#E9EDFA"/>
<path d="M958.397 672.051C965.592 672.051 971.424 666.173 971.424 658.923C971.424 651.672 965.592 645.795 958.397 645.795C951.202 645.795 945.369 651.672 945.369 658.923C945.369 666.173 951.202 672.051 958.397 672.051Z" fill="#E9EDFA"/>
<path d="M936.738 707.912C936.802 704.514 938.026 701.243 940.205 698.649C942.255 696.085 944.819 693.987 947.731 692.493C950.643 690.999 953.835 690.143 957.098 689.982C970.819 689.61 976.839 701.236 977.68 705.994C978.949 713.175 978.668 749.334 978.668 749.334H936.266L936.487 738.584L936.738 707.912Z" fill="white"/>
<path d="M1045.72 757.005L1050.15 980.304C1050.15 980.304 1098.72 980.809 1128.45 984.541C1154.46 987.812 1216.97 984.794 1216.97 984.794L1219.92 757.764L1045.83 756.589" fill="#BAC6F2"/>
<path d="M1044.48 757.005L1219.85 757.749L1219.05 715.51H1167.1C1167.1 715.51 1160.65 690.234 1136.47 690.234C1106.8 690.234 1101.86 716.848 1101.86 716.848L1044.32 716.238L1044.48 757.005Z" fill="#BAC6F2"/>
<path d="M1063.03 781.017H1094.04V814.915H1063.03V781.017ZM1119.06 780.526H1150.08V814.425H1119.06V780.526ZM1174.38 781.017H1205.39V814.915H1174.38V781.017ZM1174.85 844.784H1205.86V878.683H1174.85V844.784ZM1175.29 919.004H1206.3V952.903H1175.29V919.004ZM1119.11 917.636H1150.12V951.535H1119.11V917.636ZM1063.04 916.937H1094.06V950.836H1063.04V916.937ZM1117.85 843.818H1148.87V877.716H1117.85V843.818Z" fill="white"/>
<path d="M1117.85 843.818H1148.87V877.716H1117.85V843.818ZM1063.27 845.275H1094.28V879.173H1063.27V845.275Z" fill="white"/>
<path d="M1134.84 739.997C1144.25 739.997 1151.89 732.302 1151.89 722.81C1151.89 713.317 1144.25 705.622 1134.84 705.622C1125.42 705.622 1117.78 713.317 1117.78 722.81C1117.78 732.302 1125.42 739.997 1134.84 739.997Z" fill="white"/>
<path d="M1295.19 565.643H1322.44L1322.02 552.262L1294.74 551.965L1295.19 565.643Z" fill="white"/>
<path d="M1219.14 691.335L1215.88 985.136C1215.88 985.136 1274.21 970.268 1311.16 951.773C1346.17 934.273 1362.79 895.751 1366.78 888.228C1367.2 887.42 1367.55 886.58 1367.84 885.715L1388.08 825.085C1388.65 823.42 1389.07 821.708 1389.34 819.97L1398.57 760.142L1403 732.756C1403.26 731.062 1403.26 729.336 1403 727.642L1398.11 695.066C1398.06 694.701 1397.91 694.355 1397.69 694.057C1397.48 693.759 1397.19 693.519 1396.86 693.357L1369.51 679.827L1323.51 597.757L1322.37 565.673H1295.12L1294.25 597.757L1245.84 678.34L1219.14 691.335Z" fill="#E9EDFA"/>
<path d="M1289.16 713.993H1307.04V736.414H1289.16V713.993ZM1313.38 714.38H1332.46V736.399H1313.38V714.38ZM1288.76 740.606H1306.64V763.027H1288.76V740.606ZM1312.99 741.008H1332.06V763.027H1312.99V741.008ZM1289.54 794.011H1307.42V816.432H1289.54V794.011ZM1247.41 793.892H1265.29V816.313H1247.41V793.892ZM1353.16 794.888H1371.04V817.309H1353.16V794.888ZM1358.91 903.839L1353.54 911.63L1354.22 891.975L1365.08 891.529L1358.91 903.839ZM1247.61 894.294H1265.49V916.715H1247.61V894.294ZM1313.77 794.413H1332.84V816.432H1313.77V794.413ZM1289.14 820.639H1307.03V843.06H1289.14V820.639ZM1313.37 821.041H1332.45V843.06H1313.37V821.041ZM1289.22 891.187H1307.1V913.607H1289.22V891.187ZM1313.44 891.588H1332.52V913.607H1313.44V891.588ZM1288.82 917.815H1306.7V940.235H1288.82V917.815ZM1330.62 938.674L1328.6 940.235H1313.04V918.216H1332.12V937.217L1330.62 938.674Z" fill="white"/>
<path d="M1257.33 751.489C1264.24 751.489 1269.83 745.851 1269.83 738.896C1269.83 731.942 1264.24 726.303 1257.33 726.303C1250.43 726.303 1244.84 731.942 1244.84 738.896C1244.84 745.851 1250.43 751.489 1257.33 751.489Z" fill="white"/>
<path d="M1358.68 754.299C1365.58 754.299 1371.17 748.661 1371.17 741.706C1371.17 734.752 1365.58 729.113 1358.68 729.113C1351.78 729.113 1346.18 734.752 1346.18 741.706C1346.18 748.661 1351.78 754.299 1358.68 754.299Z" fill="white"/>
<path d="M1219.12 691.335H1246.37L1245.96 677.939L1218.68 677.656L1219.12 691.335ZM1370.7 693.847H1397.95L1396.18 685.447L1395.03 680.422L1370.24 680.169L1370.7 693.847Z" fill="white"/>
<path d="M1309.81 684.852C1321.68 684.852 1331.3 675.16 1331.3 663.205C1331.3 651.249 1321.68 641.557 1309.81 641.557C1297.95 641.557 1288.33 651.249 1288.33 663.205C1288.33 675.16 1297.95 684.852 1309.81 684.852Z" fill="white"/>
</svg>
