<svg width="100" height="108" viewBox="0 0 100 108" fill="none" xmlns="http://www.w3.org/2000/svg">
<path d="M20.8333 49.5674H45.8333V22.9717C45.8333 21.7961 46.2723 20.6686 47.0537 19.8373C47.8351 19.0061 48.8949 18.5391 50 18.5391C51.1051 18.5391 52.1649 19.0061 52.9463 19.8373C53.7277 20.6686 54.1667 21.7961 54.1667 22.9717V49.5674H79.1667C80.2717 49.5674 81.3315 50.0344 82.1129 50.8657C82.8943 51.697 83.3333 52.8245 83.3333 54.0001C83.3333 55.1757 82.8943 56.3031 82.1129 57.1344C81.3315 57.9657 80.2717 58.4327 79.1667 58.4327H54.1667V85.0284C54.1667 86.204 53.7277 87.3315 52.9463 88.1628C52.1649 88.994 51.1051 89.4611 50 89.4611C48.8949 89.4611 47.8351 88.994 47.0537 88.1628C46.2723 87.3315 45.8333 86.204 45.8333 85.0284V58.4327H20.8333C19.7283 58.4327 18.6684 57.9657 17.887 57.1344C17.1056 56.3031 16.6667 55.1757 16.6667 54.0001C16.6667 52.8245 17.1056 51.697 17.887 50.8657C18.6684 50.0344 19.7283 49.5674 20.8333 49.5674Z" fill="#E63946"/>
</svg>
