<svg width="22" height="22" viewBox="0 0 22 22" fill="none" xmlns="http://www.w3.org/2000/svg">
<path d="M21.7073 20.293L16.032 14.6178C17.3089 13.0241 18.0032 11.0421 18 9C18 4.0295 13.9707 0 9 0C4.0295 0 0 4.0295 0 9C0 13.9705 4.0295 18 9 18C11.125 18 13.078 17.2635 14.6178 16.0317L20.293 21.707C20.3857 21.8 20.4959 21.8738 20.6173 21.924C20.7386 21.9743 20.8687 22.0001 21 22C21.1978 22 21.3911 21.9414 21.5556 21.8315C21.72 21.7216 21.8482 21.5655 21.9239 21.3828C21.9996 21.2001 22.0194 20.999 21.9808 20.805C21.9423 20.6111 21.8471 20.4329 21.7073 20.293ZM9 16C5.134 16 2 12.866 2 9C2 5.134 5.134 2 9 2C12.8663 2 16 5.134 16 9C16 12.866 12.8663 16 9 16Z" fill="#E9EDFA"/>
</svg>
