<svg width="89" height="89" viewBox="0 0 89 89" fill="none" xmlns="http://www.w3.org/2000/svg">
<g clip-path="url(#clip0_304_2053)">
<path d="M57.01 45.8793C54.0589 45.8837 51.2297 47.0576 49.1424 49.1439C47.0551 51.2301 45.8798 54.0587 45.8739 57.0098C45.8798 59.961 47.0551 62.7895 49.1424 64.8758C51.2297 66.9621 54.0589 68.136 57.01 68.1404C59.9602 68.1345 62.7879 66.9599 64.874 64.8738C66.9601 62.7877 68.1347 59.96 68.1406 57.0098C68.1347 54.0596 66.9601 51.2319 64.874 49.1458C62.7879 47.0597 59.9602 45.8852 57.01 45.8793V45.8793ZM57.01 48.6605C58.1073 48.6576 59.1943 48.8715 60.2086 49.2901C61.2229 49.7087 62.1445 50.3235 62.9204 51.0994C63.6963 51.8753 64.3112 52.7969 64.7298 53.8112C65.1483 54.8255 65.3623 55.9126 65.3593 57.0098C65.3623 58.1071 65.1483 59.1941 64.7298 60.2084C64.3112 61.2228 63.6963 62.1443 62.9204 62.9202C62.1445 63.6961 61.2229 64.311 60.2086 64.7296C59.1943 65.1481 58.1073 65.3621 57.01 65.3591C55.9125 65.3621 54.8252 65.1482 53.8106 64.7297C52.796 64.3112 51.874 63.6964 51.0977 62.9206C50.3213 62.1448 49.7059 61.2232 49.2868 60.2089C48.8676 59.1945 48.6529 58.1074 48.6552 57.0098C48.6529 55.9123 48.8676 54.8251 49.2868 53.8108C49.7059 52.7965 50.3213 51.8749 51.0977 51.0991C51.874 50.3233 52.796 49.7085 53.8106 49.29C54.8252 48.8715 55.9125 48.6576 57.01 48.6605V48.6605Z" fill="#3356D9"/>
<path d="M6.93099 38.6456C6.56314 38.6514 6.21256 38.8028 5.95609 39.0666C5.69962 39.3304 5.55814 39.685 5.5626 40.0529V76.4873C5.5626 76.8561 5.70913 77.2098 5.96993 77.4706C6.23072 77.7314 6.58441 77.8779 6.95323 77.8779H37.547C37.9158 77.8779 38.2695 77.7314 38.5303 77.4706C38.7911 77.2098 38.9376 76.8561 38.9376 76.4873V40.331C38.9376 39.9622 38.7911 39.6085 38.5303 39.3477C38.2695 39.0869 37.9158 38.9404 37.547 38.9404C37.1782 38.9404 36.8245 39.0869 36.5637 39.3477C36.3029 39.6085 36.1564 39.9622 36.1564 40.331V75.0966H8.34385V40.0529C8.34611 39.867 8.31104 39.6825 8.24077 39.5104C8.17049 39.3382 8.06643 39.182 7.9347 39.0508C7.80298 38.9195 7.64631 38.8161 7.47391 38.7465C7.3015 38.6769 7.11689 38.6426 6.93099 38.6456V38.6456Z" fill="#E63946"/>
<path d="M18.0834 55.625C17.7146 55.625 17.3609 55.7715 17.1001 56.0323C16.8393 56.2931 16.6928 56.6468 16.6928 57.0156V76.4844C16.6928 76.8532 16.8393 77.2069 17.1001 77.4677C17.3609 77.7285 17.7146 77.875 18.0834 77.875C18.4523 77.875 18.806 77.7285 19.0668 77.4677C19.3276 77.2069 19.4741 76.8532 19.4741 76.4844V58.4062H25.0366V76.4844C25.0366 76.8532 25.1831 77.2069 25.4439 77.4677C25.7047 77.7285 26.0584 77.875 26.4272 77.875C26.796 77.875 27.1497 77.7285 27.4105 77.4677C27.6713 77.2069 27.8178 76.8532 27.8178 76.4844V57.0156C27.8178 56.6468 27.6713 56.2931 27.4105 56.0323C27.1497 55.7715 26.796 55.625 26.4272 55.625H18.0834V55.625Z" fill="#3356D9"/>
<path fill-rule="evenodd" clip-rule="evenodd" d="M22.375 22.7341C22.1869 22.7326 22.0004 22.7693 21.8268 22.8419C21.6533 22.9146 21.4963 23.0217 21.3654 23.1568L0.403124 44.9145C0.268637 45.0443 0.161689 45.1999 0.0886968 45.372C0.0157051 45.5441 -0.0218635 45.7291 -0.0217282 45.9161C-0.0215928 46.103 0.0162624 46.288 0.0895032 46.4599C0.162744 46.6319 0.269892 46.7874 0.404567 46.917C0.539242 47.0466 0.698652 47.1477 0.8733 47.2144C1.04795 47.281 1.23426 47.3117 1.42105 47.3047C1.60784 47.2977 1.79128 47.2531 1.96045 47.1736C2.12961 47.0941 2.28104 46.9813 2.40563 46.8419L22.3694 26.1216L42.3332 46.8419C42.4561 46.9871 42.6076 47.1055 42.7781 47.1898C42.9486 47.2742 43.1347 47.3226 43.3247 47.3321C43.5147 47.3417 43.7046 47.3122 43.8827 47.2454C44.0608 47.1786 44.2234 47.076 44.3602 46.9439C44.4971 46.8118 44.6054 46.653 44.6785 46.4773C44.7515 46.3017 44.7878 46.1129 44.785 45.9227C44.7822 45.7325 44.7403 45.5449 44.6621 45.3714C44.5839 45.198 44.4709 45.0425 44.3302 44.9145L23.3679 23.1568C23.2389 23.0237 23.0846 22.9178 22.9141 22.8452C22.7436 22.7726 22.5603 22.7348 22.375 22.7341V22.7341Z" fill="#E63946"/>
<path d="M6.95312 27.8125C6.58431 27.8125 6.23062 27.959 5.96982 28.2198C5.70903 28.4806 5.5625 28.8343 5.5625 29.2031V40.3281C5.5625 40.6969 5.70903 41.0507 5.96982 41.3114C6.23062 41.5722 6.58431 41.7188 6.95312 41.7188C7.32194 41.7188 7.67563 41.5722 7.93643 41.3114C8.19722 41.0507 8.34375 40.6969 8.34375 40.3281V30.5938H11.125V34.1843C11.125 34.5532 11.2715 34.9069 11.5323 35.1677C11.7931 35.4285 12.1468 35.575 12.5156 35.575C12.8844 35.575 13.2381 35.4285 13.4989 35.1677C13.7597 34.9069 13.9062 34.5532 13.9062 34.1843V29.2059C13.9062 28.8371 13.7597 28.4834 13.4989 28.2226C13.2381 27.9618 12.8844 27.8153 12.5156 27.8153H6.95312V27.8125Z" fill="#E63946"/>
<path d="M22.2553 33.375C20.413 33.3809 18.6479 34.1153 17.3452 35.418C16.0425 36.7207 15.3081 38.4858 15.3022 40.3281C15.3022 44.1523 18.4311 47.2813 22.2553 47.2813C26.0795 47.2813 29.2084 44.1523 29.2084 40.3281C29.2084 36.5039 26.0795 33.375 22.2553 33.375ZM22.2553 36.1562C24.5749 36.1562 26.4272 38.0086 26.4272 40.3281C26.4272 42.6505 24.5749 44.5 22.2553 44.5C19.9357 44.5 18.0834 42.6505 18.0834 40.3281C18.0834 38.0086 19.9357 36.1562 22.2553 36.1562Z" fill="#3356D9"/>
<path fill-rule="evenodd" clip-rule="evenodd" d="M55.6414 55.625V77.875H58.4227V55.625H55.6414V55.625Z" fill="#E63946"/>
<path fill-rule="evenodd" clip-rule="evenodd" d="M51.4528 54.223C51.1765 54.2236 50.9067 54.3065 50.6777 54.4611C50.4487 54.6156 50.2709 54.8349 50.1671 55.091C50.0632 55.347 50.038 55.6282 50.0946 55.8986C50.1513 56.169 50.2871 56.4165 50.4849 56.6093L56.0474 62.1718C56.1757 62.3047 56.3292 62.4106 56.4989 62.4835C56.6685 62.5564 56.851 62.5947 57.0356 62.5963C57.2203 62.5979 57.4034 62.5627 57.5743 62.4928C57.7452 62.4229 57.9005 62.3196 58.0311 62.1891C58.1616 62.0585 58.2649 61.9032 58.3348 61.7323C58.4047 61.5614 58.4399 61.3783 58.4383 61.1937C58.4367 61.009 58.3983 60.8265 58.3255 60.6569C58.2526 60.4872 58.1466 60.3338 58.0138 60.2055L52.4513 54.643C52.3212 54.5103 52.1658 54.4049 51.9943 54.3333C51.8228 54.2616 51.6387 54.2251 51.4528 54.2258V54.223Z" fill="#E63946"/>
<path fill-rule="evenodd" clip-rule="evenodd" d="M61.1764 58.3785C60.8142 58.3903 60.4709 58.543 60.2196 58.8041L56.0478 62.9759C55.9149 63.1042 55.809 63.2577 55.7361 63.4273C55.6632 63.597 55.6249 63.7795 55.6233 63.9641C55.6217 64.1488 55.6569 64.3319 55.7268 64.5028C55.7967 64.6737 55.9 64.829 56.0305 64.9595C56.1611 65.0901 56.3164 65.1934 56.4873 65.2633C56.6582 65.3332 56.8413 65.3684 57.026 65.3668C57.2106 65.3652 57.3931 65.3268 57.5627 65.2539C57.7324 65.1811 57.8858 65.0751 58.0141 64.9423L62.186 60.7704C62.3886 60.5754 62.5273 60.3236 62.5839 60.0482C62.6404 59.7728 62.6122 59.4867 62.5029 59.2277C62.3935 58.9686 62.2083 58.7488 61.9714 58.5972C61.7346 58.4456 61.4574 58.3694 61.1764 58.3785V58.3785Z" fill="#E63946"/>
<path d="M79.2656 27.8125C74.6682 27.8125 70.9219 31.5588 70.9219 36.1562V57.0156C70.9219 61.6158 74.6682 65.3594 79.2656 65.3594C83.863 65.3594 87.6094 61.6158 87.6094 57.0156V36.1562C87.6094 31.5588 83.863 27.8125 79.2656 27.8125V27.8125ZM79.2656 30.5938C82.3723 30.5938 84.8281 33.0524 84.8281 36.1562V57.0156C84.8281 60.1223 82.3723 62.5781 79.2656 62.5781C76.159 62.5781 73.7031 60.1223 73.7031 57.0156V36.1562C73.7031 33.0524 76.159 30.5938 79.2656 30.5938Z" fill="#3356D9"/>
<path fill-rule="evenodd" clip-rule="evenodd" d="M77.875 36.2814V77.875H80.6562V36.2814H77.875Z" fill="#E63946"/>
<path fill-rule="evenodd" clip-rule="evenodd" d="M83.4262 54.9185C83.0652 54.9281 82.722 55.0777 82.4694 55.3357L78.2975 59.5076C78.0356 59.7683 77.8881 60.1224 77.8873 60.492C77.8865 60.8615 78.0326 61.2162 78.2933 61.4781C78.5541 61.74 78.9082 61.8875 79.2777 61.8883C79.6473 61.8891 80.002 61.743 80.2638 61.4823L84.4357 57.3048C84.6363 57.1095 84.7733 56.8582 84.8287 56.5838C84.8841 56.3093 84.8553 56.0246 84.7462 55.7668C84.6372 55.5089 84.4528 55.29 84.2172 55.1387C83.9817 54.9873 83.706 54.9106 83.4262 54.9185V54.9185Z" fill="#E63946"/>
<path fill-rule="evenodd" clip-rule="evenodd" d="M75.0656 54.9185C74.7888 54.918 74.5182 55.0001 74.2883 55.1542C74.0585 55.3084 73.8799 55.5276 73.7753 55.7839C73.6708 56.0402 73.6451 56.3218 73.7015 56.5927C73.758 56.8637 73.894 57.1116 74.0921 57.3048L78.264 61.4823C78.3937 61.6116 78.5475 61.7141 78.7168 61.7839C78.886 61.8537 79.0674 61.8895 79.2505 61.8893C79.4336 61.889 79.6149 61.8527 79.784 61.7824C79.9531 61.7121 80.1066 61.6092 80.2359 61.4795C80.3652 61.3498 80.4677 61.196 80.5375 61.0267C80.6074 60.8574 80.6432 60.6761 80.6429 60.493C80.6427 60.3099 80.6063 60.1286 80.536 59.9595C80.4657 59.7905 80.3628 59.6369 80.2331 59.5076L76.0613 55.3357C75.9315 55.2033 75.7765 55.0982 75.6055 55.0266C75.4345 54.9549 75.251 54.9182 75.0656 54.9185V54.9185ZM83.426 46.5748C83.065 46.5843 82.7219 46.734 82.4692 46.992L78.2974 51.1638C78.1681 51.293 78.0655 51.4463 77.9955 51.615C77.9254 51.7838 77.8893 51.9647 77.8891 52.1474C77.889 52.3301 77.9249 52.5111 77.9947 52.68C78.0645 52.8488 78.1669 53.0023 78.296 53.1316C78.4251 53.2609 78.5784 53.3635 78.7472 53.4335C78.9159 53.5036 79.0968 53.5397 79.2796 53.5398C79.4623 53.5399 79.6433 53.5041 79.8121 53.4343C79.981 53.3645 80.1344 53.2621 80.2637 53.133L84.4356 48.9611C84.6361 48.7658 84.7731 48.5144 84.8285 48.24C84.8839 47.9656 84.8552 47.6808 84.7461 47.423C84.637 47.1652 84.4526 46.9463 84.2171 46.7949C83.9816 46.6436 83.7059 46.5669 83.426 46.5748Z" fill="#E63946"/>
<path fill-rule="evenodd" clip-rule="evenodd" d="M75.0656 46.5748C74.7888 46.5743 74.5182 46.6563 74.2883 46.8105C74.0585 46.9646 73.8799 47.1839 73.7753 47.4401C73.6708 47.6964 73.6451 47.978 73.7015 48.249C73.758 48.5199 73.894 48.7679 74.0921 48.9611L78.264 53.133C78.3931 53.2623 78.5464 53.3649 78.7152 53.4349C78.884 53.5049 79.0649 53.5411 79.2476 53.5412C79.4303 53.5413 79.6113 53.5055 79.7801 53.4357C79.949 53.3658 80.1025 53.2635 80.2317 53.1344C80.361 53.0052 80.4636 52.8519 80.5337 52.6832C80.6037 52.5144 80.6398 52.3335 80.64 52.1508C80.6401 51.9681 80.6042 51.7871 80.5344 51.6182C80.4646 51.4494 80.3623 51.2959 80.2331 51.1666L76.0613 46.9947C75.9315 46.8623 75.7765 46.7572 75.6055 46.6856C75.4345 46.6139 75.251 46.5772 75.0656 46.5776V46.5748ZM83.426 38.231C83.065 38.2406 82.7219 38.3902 82.4692 38.6482L78.2974 42.8201C78.1681 42.9492 78.0655 43.1025 77.9955 43.2713C77.9254 43.44 77.8893 43.6209 77.8891 43.8037C77.889 43.9864 77.9249 44.1673 77.9947 44.3362C78.0645 44.5051 78.1669 44.6585 78.296 44.7878C78.4251 44.9171 78.5784 45.0197 78.7472 45.0898C78.9159 45.1598 79.0968 45.1959 79.2796 45.1961C79.4623 45.1962 79.6433 45.1603 79.8121 45.0905C79.981 45.0207 80.1344 44.9183 80.2637 44.7892L84.4356 40.6173C84.6361 40.422 84.7731 40.1707 84.8285 39.8963C84.8839 39.6218 84.8552 39.3371 84.7461 39.0793C84.637 38.8214 84.4526 38.6025 84.2171 38.4512C83.9816 38.2998 83.7059 38.2231 83.426 38.231V38.231Z" fill="#E63946"/>
<path fill-rule="evenodd" clip-rule="evenodd" d="M75.0656 38.2308C74.7888 38.2303 74.5182 38.3124 74.2883 38.4665C74.0585 38.6207 73.8799 38.8399 73.7753 39.0962C73.6708 39.3525 73.6451 39.6341 73.7015 39.905C73.758 40.176 73.894 40.4239 74.0921 40.6172L78.264 44.789C78.3931 44.9183 78.5464 45.0209 78.7152 45.091C78.884 45.161 79.0649 45.1971 79.2476 45.1973C79.4303 45.1974 79.6113 45.1615 79.7801 45.0917C79.949 45.0219 80.1025 44.9195 80.2317 44.7904C80.361 44.6613 80.4636 44.508 80.5337 44.3392C80.6037 44.1705 80.6398 43.9896 80.64 43.8068C80.6401 43.6241 80.6042 43.4432 80.5344 43.2743C80.4646 43.1054 80.3623 42.952 80.2331 42.8227L76.0613 38.6508C75.9315 38.5184 75.7765 38.4133 75.6055 38.3417C75.4345 38.27 75.251 38.2333 75.0656 38.2336V38.2308Z" fill="#E63946"/>
<path fill-rule="evenodd" clip-rule="evenodd" d="M0 75.0938V77.875H44.5V75.0938H0ZM47.2812 75.0938V77.875H50.0625V75.0938H47.2812ZM52.8438 75.0938V77.875H63.9688V75.0938H52.8438ZM66.75 75.0938V77.875H69.5312V75.0938H66.75ZM72.3125 75.0938V77.875H89V75.0938H72.3125Z" fill="#3356D9"/>
<path d="M41.7188 6.95312C39.1388 6.959 36.6663 7.98647 34.842 9.81075C33.0177 11.635 31.9903 14.1076 31.9844 16.6875C31.9844 22.047 36.3593 26.4219 41.7188 26.4219C47.0782 26.4219 51.4531 22.047 51.4531 16.6875C51.4531 11.328 47.0782 6.95312 41.7188 6.95312ZM41.7188 9.73438C45.5763 9.73438 48.6719 12.8327 48.6719 16.6875C48.6719 20.5451 45.5763 23.6406 41.7188 23.6406C40.8048 23.6436 39.8993 23.4657 39.0544 23.1173C38.2095 22.7689 37.4418 22.2569 36.7956 21.6107C36.1493 20.9644 35.6373 20.1967 35.2889 19.3518C34.9405 18.5069 34.7627 17.6014 34.7656 16.6875C34.7656 12.8327 37.8612 9.73438 41.7188 9.73438Z" fill="#E63946"/>
<path fill-rule="evenodd" clip-rule="evenodd" d="M33.375 80.6562V83.4375H36.1562V80.6562H33.375ZM38.9375 80.6562V83.4375H61.1875V80.6562H38.9375ZM27.8125 80.6562V83.4375H30.5938V80.6562H27.8125Z" fill="#3356D9"/>
</g>
<defs>
<clipPath id="clip0_304_2053">
<rect width="89" height="89" fill="white"/>
</clipPath>
</defs>
</svg>
