<svg width="40" height="40" viewBox="0 0 40 40" fill="none" xmlns="http://www.w3.org/2000/svg">
<path d="M31.6667 3.33325H15.0001C13.1617 3.33325 11.6667 4.82825 11.6667 6.66658V15.9766L3.82172 23.8216C3.5887 24.0547 3.43003 24.3516 3.36575 24.6749C3.30147 24.9981 3.33447 25.3332 3.46059 25.6377C3.58671 25.9422 3.80027 26.2024 4.07429 26.3856C4.3483 26.5687 4.67047 26.6665 5.00005 26.6666V34.9999C5.00005 35.4419 5.17565 35.8659 5.48821 36.1784C5.80077 36.491 6.22469 36.6666 6.66672 36.6666H33.3334C33.7754 36.6666 34.1993 36.491 34.5119 36.1784C34.8245 35.8659 35 35.4419 35 34.9999V6.66658C35 4.82825 33.505 3.33325 31.6667 3.33325ZM18.3334 33.3332H8.33338V24.0232L13.3334 19.0232L18.3334 24.0232V33.3332ZM31.6667 33.3332H21.6667V26.6666C21.9967 26.6673 22.3194 26.57 22.5939 26.387C22.8684 26.204 23.0824 25.9435 23.2087 25.6387C23.3349 25.3339 23.3678 24.9984 23.303 24.6749C23.2383 24.3514 23.0789 24.0544 22.8451 23.8216L15.0001 15.9766V6.66658H31.6667V33.3332Z" fill="black"/>
<path d="M18.3334 10H21.6667V13.3333H18.3334V10ZM25.0001 10H28.3334V13.3333H25.0001V10ZM25.0001 16.7183H28.3334V20H25.0001V16.7183ZM25.0001 23.3333H28.3334V26.6667H25.0001V23.3333ZM11.6667 25H15.0001V28.3333H11.6667V25Z" fill="black"/>
</svg>
