<svg width="8" height="16" viewBox="0 0 8 16" fill="none" xmlns="http://www.w3.org/2000/svg">
<path fill-rule="evenodd" clip-rule="evenodd" d="M0.266071 15.2809C0.560617 15.5734 1.03698 15.5734 1.3308 15.2809L7.55843 9.08289C7.69784 8.94627 7.80884 8.78184 7.88469 8.59959C7.96054 8.41734 7.99965 8.22109 7.99965 8.02277C7.99965 7.82445 7.96054 7.62819 7.88469 7.44595C7.80884 7.2637 7.69784 7.09927 7.55843 6.96264L1.28571 0.718893C1.14335 0.579354 0.954821 0.500924 0.758418 0.499531C0.562016 0.498138 0.372462 0.573886 0.228253 0.711393C0.156814 0.779299 0.0996541 0.861605 0.0603118 0.953215C0.0209695 1.04483 0.000282825 1.14379 -0.000467132 1.24398C-0.00121709 1.34417 0.0179856 1.44345 0.0559519 1.53568C0.0939181 1.6279 0.14984 1.71111 0.220253 1.78014L5.96134 7.49289C6.0311 7.56121 6.08665 7.64345 6.12461 7.73461C6.16257 7.82577 6.18214 7.92394 6.18214 8.02314C6.18214 8.12235 6.16257 8.22052 6.12461 8.31168C6.08665 8.40284 6.0311 8.48508 5.96134 8.55339L0.266071 14.2211C0.196333 14.2894 0.140797 14.3716 0.102847 14.4627C0.0648957 14.5538 0.0453243 14.6519 0.0453243 14.751C0.0453243 14.8502 0.0648957 14.9483 0.102847 15.0394C0.140797 15.1305 0.196333 15.2126 0.266071 15.2809Z" fill="#3356D9"/>
</svg>
