<svg width="20" height="20" viewBox="0 0 20 20" fill="none" xmlns="http://www.w3.org/2000/svg">
<g clip-path="url(#clip0_615_2565)">
<path d="M18.1709 1.8292C17.1578 0.801387 15.8201 0.155889 14.3851 0.0022996C12.95 -0.15129 11.5061 0.196495 10.2983 0.986609C9.09056 1.77672 8.19348 2.96047 7.75937 4.33686C7.32526 5.71326 7.38087 7.19748 7.91677 8.53753L0.608434 15.8834C-0.158232 16.6667 0.000100864 17.3042 0.000100864 19.5834C0.000100864 19.6939 0.0439996 19.7999 0.12214 19.878C0.20028 19.9561 0.306261 20 0.416768 20H3.54177C3.67856 20 3.81402 19.9731 3.9404 19.9207C4.06678 19.8684 4.18161 19.7917 4.27834 19.6949C4.37506 19.5982 4.45179 19.4834 4.50414 19.357C4.55649 19.2306 4.58343 19.0952 4.58343 18.9584C4.58343 18.9031 4.60538 18.8501 4.64445 18.8111C4.68352 18.772 4.73651 18.75 4.79177 18.75H5.20843C5.4847 18.75 5.74965 18.6403 5.945 18.4449C6.14035 18.2496 6.2501 17.9846 6.2501 17.7084C6.2501 16.6417 6.12093 16.9667 6.77927 16.3125C6.85843 16.2292 6.85843 16.25 7.70843 16.25C7.9847 16.25 8.24965 16.1403 8.445 15.9449C8.64036 15.7496 8.7501 15.4846 8.7501 15.2084V14.425C8.7501 14.3042 8.6126 14.4792 11.1293 11.9625C11.1793 11.9084 11.0584 11.9084 11.4709 12.0667C12.1966 12.3533 12.9699 12.5003 13.7501 12.5C19.3459 12.5 22.0834 5.72504 18.1709 1.8292ZM7.91677 15.2084C7.91677 15.4709 7.6876 15.4167 6.9251 15.4167C6.40843 15.4167 6.19177 15.7167 5.72093 16.1875C5.0876 16.8209 5.7001 17.9167 5.20843 17.9167H4.79177C4.5155 17.9167 4.25055 18.0264 4.0552 18.2218C3.85985 18.4172 3.7501 18.6821 3.7501 18.9584C3.7501 19.0136 3.72815 19.0666 3.68908 19.1057C3.65001 19.1448 3.59702 19.1667 3.54177 19.1667H0.833434V17.3542C0.833434 16.6334 0.683434 16.9875 8.33344 9.33337C8.543 9.69869 8.78868 10.0421 9.06677 10.3584L2.4126 16.9959C2.35384 17.0541 2.31376 17.1286 2.29748 17.2098C2.28121 17.2909 2.28946 17.3751 2.3212 17.4515C2.35293 17.5279 2.40671 17.5932 2.47568 17.6389C2.54465 17.6847 2.62567 17.7089 2.70843 17.7084C2.95427 17.7084 2.42093 18.1709 9.64177 10.95C9.87683 11.1579 10.1276 11.3474 10.3918 11.5167C7.62927 14.2834 7.91677 13.6792 7.91677 15.2084ZM17.5793 10.0792C16.8218 10.837 15.8567 11.3532 14.8059 11.5624C13.7551 11.7716 12.6658 11.6645 11.6759 11.2547C10.686 10.8448 9.83983 10.1505 9.24451 9.25967C8.6492 8.36884 8.33144 7.32147 8.33144 6.25004C8.33144 5.1786 8.6492 4.13123 9.24451 3.2404C9.83983 2.34958 10.686 1.65531 11.6759 1.24542C12.6658 0.835526 13.7551 0.728423 14.8059 0.937654C15.8567 1.14689 16.8218 1.66305 17.5793 2.42087C18.5945 3.43661 19.1648 4.81393 19.1648 6.25004C19.1648 7.68614 18.5945 9.06346 17.5793 10.0792Z" fill="black"/>
<path d="M15.8334 2.5C15.5038 2.5 15.1815 2.59775 14.9075 2.78088C14.6334 2.96402 14.4198 3.22432 14.2936 3.52886C14.1675 3.8334 14.1345 4.16852 14.1988 4.49182C14.2631 4.81512 14.4218 5.11209 14.6549 5.34518C14.888 5.57827 15.185 5.737 15.5083 5.80131C15.8316 5.86562 16.1667 5.83261 16.4712 5.70647C16.7758 5.58032 17.0361 5.3667 17.2192 5.09262C17.4023 4.81853 17.5001 4.4963 17.5001 4.16667C17.5001 3.72464 17.3245 3.30072 17.0119 2.98816C16.6994 2.67559 16.2754 2.5 15.8334 2.5ZM15.8334 5C15.6686 5 15.5075 4.95113 15.3704 4.85956C15.2334 4.76799 15.1266 4.63784 15.0635 4.48557C15.0004 4.3333 14.9839 4.16574 15.0161 4.00409C15.0482 3.84244 15.1276 3.69395 15.2442 3.57741C15.3607 3.46087 15.5092 3.3815 15.6708 3.34935C15.8325 3.31719 16 3.33369 16.1523 3.39677C16.3046 3.45984 16.4347 3.56665 16.5263 3.70369C16.6179 3.84073 16.6667 4.00185 16.6667 4.16667C16.6667 4.38768 16.579 4.59964 16.4227 4.75592C16.2664 4.9122 16.0544 5 15.8334 5Z" fill="black"/>
</g>
<defs>
<clipPath id="clip0_615_2565">
<rect width="20" height="20" fill="white"/>
</clipPath>
</defs>
</svg>
